<svg xmlns="http://www.w3.org/2000/svg" viewBox="0 0 48 48" xmlns:xlink="http://www.w3.org/1999/xlink" xml:space="preserve" width="100%" height="100%"><path xmlns="http://www.w3.org/2000/svg" d="M47.685 13.95c0-4.22-3.103-7.613-6.937-7.613C35.554 6.094 30.257 6 24.844 6h-1.688c-5.4 0-10.706.094-15.9.338-3.825 0-6.928 3.412-6.928 7.63A140 140 0 0 0 0 23.98q-.014 5.007.319 10.022c0 4.219 3.103 7.64 6.928 7.64 5.456.254 11.053.366 16.744.357q8.55.028 16.743-.356c3.835 0 6.938-3.422 6.938-7.64.225-3.348.328-6.685.319-10.032q.032-5.006-.306-10.022M19.406 33.177V14.755L33 23.962z"></path></svg>